<svg xmlns="http://www.w3.org/2000/svg" version="1.1" xmlns:xlink="http://www.w3.org/1999/xlink" xmlns:svgjs="http://svgjs.com/svgjs" width="100%" height="100%" viewBox="0 0 1000 600"><rect width="1000" height="600" x="0" y="0" fill="#358597"/><g><circle r="166.66666666666666" cx="400.29247538248694" cy="422.5146465834689" fill="#f4a896" transform="matrix(0.5350437548924848,0,0,0.5350437548924848,0,73.9361802510081)"/><path d="M395.41001771327416 360.8057785332826L395.41001771327416 360.8057785332826Q417.48958402150873 347.7316373040823 419.14419525590955 347.7316373040823Q420.7988064903105 347.7316373040823 424.7047739944699 350.74248725520516Q428.61074149862935 353.7804619806625 432.5167090027888 359.1511672988817Q436.4226765069482 364.52187261710094 436.4226765069482 369.5942054176414L436.4226765069482 369.5942054176414L436.4226765069482 402.41518236231434Q436.4226765069482 406.89077012749703 420.4190596496283 413.72621325977605L420.4190596496283 413.72621325977605Q424.51490057412883 414.892578556157 430.56372525070907 422.43326582113144Q436.6125499272893 429.94682831177147 436.6125499272893 435.9956529883517L436.6125499272893 435.9956529883517L436.6125499272893 479.34104237478766Q436.6125499272893 480.9142792861852 415.2382277517501 489.214460232524Q393.8367808018766 497.5146411788628 389.062820519015 497.5146411788628Q384.28886023615354 497.5146411788628 378.1315364622355 489.10596113518625Q371.97421268831755 480.7244058658441 371.97421268831755 469.0065033533658L371.97421268831755 469.0065033533658L371.97421268831755 375.2632832535394Q371.97421268831755 364.711746037442 363.9724042596576 362.9486357057034L363.9724042596576 362.9486357057034L363.9724042596576 358.66292136086184L383.69211520079585 347.51463910940674Q387.97782954563746 349.2777494411454 391.6939236294558 353.29221604264256Q395.41001771327416 357.27955786980533 395.41001771327416 360.8057785332826ZM405.36480989401383 479.5580405694632L405.36480989401383 479.5580405694632Q409.0809039778322 479.5580405694632 412.9868714819916 476.4115667466681L412.9868714819916 476.4115667466681L412.9868714819916 446.14031858943247Q412.9868714819916 431.7099386435101 403.03207930125194 431.7099386435101L403.03207930125194 431.7099386435101Q399.1261117970925 431.7099386435101 395.41001771327416 434.6394142716297L395.41001771327416 434.6394142716297L395.41001771327416 465.1005358492064Q395.41001771327416 479.5580405694632 405.36480989401383 479.5580405694632ZM412.9868714819916 380.33561605407976Q412.9868714819916 375.07340983319835 410.735515212233 371.2488166520422Q408.4841589424745 367.4513482452205 404.3069436949706 367.4513482452205Q400.10260367313236 367.4513482452205 395.41001771327416 373.3102995014597L395.41001771327416 373.3102995014597L395.41001771327416 413.72621325977605Q412.9868714819916 408.84375387957675 412.9868714819916 392.65026360191575L412.9868714819916 392.65026360191575L412.9868714819916 380.33561605407976Z " fill="#358597" transform="matrix(0.5350437548924848,0,0,0.5350437548924848,0,73.9361802510081)"/><path d="M674.5489818912135 368.67888082487326L679.6689548286503 368.67888082487326L679.6689548286503 390.400746207959L688.9710838783498 390.400746207959L687.1461430293624 399.34802564813316L679.6689548286503 399.34802564813316L679.6689548286503 464.66570020147265Q679.6689548286503 475.81811650083984 687.1461430293624 477.2628613396215L687.1461430293624 477.2628613396215L687.1461430293624 481.29293904780195L668.7193097347262 491.6849633267577Q664.714578427226 490.0374472825331 661.242121534014 486.3115263825172Q657.7696646408019 482.56025908182096 657.7696646408019 479.2652269933715L657.7696646408019 479.2652269933715L657.7696646408019 399.5254504528958L650.2924764400898 399.5254504528958L652.1174172890773 391.8708374474211Q657.5922398360393 391.8708374474211 665.3482384442356 384.4696884487501Q673.1042370524318 377.0685394500791 674.5489818912135 368.67888082487326L674.5489818912135 368.67888082487326ZM697.918363318524 479.2652269933715L697.918363318524 479.2652269933715L697.918363318524 388.930654968497Q697.918363318524 384.01345323650327 696.2708472742992 381.9097019800317Q694.6233312300745 379.80595072356016 690.6185999225745 379.80595072356016L690.6185999225745 379.80595072356016L690.6185999225745 374.7113241868038Q714.3428309594102 362.2915878534175 732.9470890588092 351.34194275949335L732.9470890588092 351.34194275949335L735.8872715377332 357.1969613166611Q734.0623306887459 358.10943174115476 730.7672986002965 360.74545741191434Q727.4722665118471 363.38148308267387 725.2924760533344 366.1188943561549L725.2924760533344 366.1188943561549Q719.8176535063723 373.06380814257903 719.8176535063723 381.8336627779905L719.8176535063723 381.8336627779905L719.8176535063723 397.34565999438314Q738.6246828112144 387.663334934478 741.7169436942207 387.663334934478L741.7169436942207 387.663334934478Q747.5466158507081 387.663334934478 752.8440135929076 394.96309833042744Q758.141411335107 402.2628617263769 758.141411335107 411.0327163617884L758.141411335107 411.0327163617884L758.141411335107 464.66570020147265Q758.141411335107 474.7028748709031 767.0886907752812 476.52781571989044L767.0886907752812 476.52781571989044L767.0886907752812 480.5578934280709L747.1917662411828 491.6849633267577Q743.1870349336828 490.0374472825331 739.7145780404707 486.3115263825172Q736.2421211472587 482.56025908182096 736.2421211472587 479.2652269933715L736.2421211472587 479.2652269933715L736.2421211472587 426.34194237273795Q736.2421211472587 408.47272989307 729.6774033710402 406.0901682291143L729.6774033710402 406.0901682291143Q726.5597960873534 405.00027299985794 719.8176535063723 405.00027299985794L719.8176535063723 405.00027299985794L719.8176535063723 464.66570020147265Q719.8176535063723 475.81811650083984 727.2948417070844 477.2628613396215L727.2948417070844 477.2628613396215L727.2948417070844 481.29293904780195L708.8680084124481 491.6849633267577Q704.8632771049481 490.0374472825331 701.390820211736 486.3115263825172Q697.918363318524 482.56025908182096 697.918363318524 479.2652269933715ZM821.1018706251712 387.663334934478L821.1018706251712 387.663334934478Q822.0143410496648 387.663334934478 825.6642227476395 390.5021318106805Q829.3141044456142 393.3155822862027 832.963986143589 398.334169620918Q836.6138678415637 403.35275695563325 836.6138678415637 408.0925338828643L836.6138678415637 408.0925338828643L836.6138678415637 438.7616787061242Q836.6138678415637 442.0567107945736 826.9315427816584 446.7964877218047Q817.2745641224337 451.53626464903573 808.2258990795381 454.552486330001Q799.2025804373227 457.5687080109662 798.4675348175917 457.5687080109662L798.4675348175917 457.5687080109662Q798.4675348175917 471.6106139878967 810.7098463462153 474.90564607634616L810.7098463462153 474.90564607634616Q816.7169433074654 476.35039091512783 825.1066019326712 476.35039091512783L825.1066019326712 476.35039091512783L825.1066019326712 481.6477886573273Q795.1978491298227 491.6849633267577 793.1701370753923 491.6849633267577L793.1701370753923 491.6849633267577Q787.6953145284301 491.6849633267577 782.0430671767054 483.9289647185615Q776.3908198249807 476.17296611036517 776.3908198249807 465.78094183140934L776.3908198249807 465.78094183140934L776.3908198249807 404.44265218488954Q776.3908198249807 403.17533215087053 797.2002147835726 395.4193335426743Q818.0096097421647 387.663334934478 821.1018706251712 387.663334934478ZM814.7145776537153 416.6849637135131Q814.7145776537153 411.56499077607634 812.3320159897596 408.01649468082314Q809.9748007264842 404.44265218488954 806.3249190285095 404.44265218488954Q802.6750373305348 404.44265218488954 798.290110012829 407.1800634583706L798.290110012829 407.1800634583706L798.290110012829 449.35647419052304Q814.7145776537153 444.79412206805466 814.7145776537153 429.6369744611874L814.7145776537153 429.6369744611874L814.7145776537153 416.6849637135131ZM910.5239722255519 363.9391038976422L910.5239722255519 363.9391038976422Q931.1559423793813 351.72213876969903 932.7020728208845 351.72213876969903Q934.2482032623877 351.72213876969903 937.8980849603624 354.5355892452212Q941.5479666583371 357.3743861214238 945.1978483563119 362.39297345613903Q948.8477300542866 367.4115607908543 948.8477300542866 372.15133771808536L948.8477300542866 372.15133771808536L948.8477300542866 402.82048254134526Q948.8477300542866 407.00263865360796 933.8933536528624 413.38993162506375L933.8933536528624 413.38993162506375Q937.7206601555997 414.4798268543201 943.3729075073245 421.52612624346574Q949.0251548590493 428.54707923193104 949.0251548590493 434.19932658365576L949.0251548590493 434.19932658365576L949.0251548590493 474.7028748709031Q949.0251548590493 476.17296611036517 929.0521911229098 483.9289647185615Q909.05388098609 491.6849633267577 904.592914466343 491.6849633267577Q900.1319479465961 491.6849633267577 894.3783149921499 483.82757911583997Q888.6246820377037 475.9955413056025 888.6246820377037 465.0458962116783L888.6246820377037 465.0458962116783L888.6246820377037 377.4487354602848Q888.6246820377037 367.588985595617 881.1474938369915 365.94146955139223L881.1474938369915 365.94146955139223L881.1474938369915 361.9367382438922L899.5743271316278 351.519367564256Q903.5790584391278 353.1668836084807 907.0515153323399 356.918150909177Q910.5239722255519 360.6440718091928 910.5239722255519 363.9391038976422ZM919.8261012752514 474.90564607634616L919.8261012752514 474.90564607634616Q923.2985581684636 474.90564607634616 926.9484398664383 471.96546359742206L926.9484398664383 471.96546359742206L926.9484398664383 443.6788804381179Q926.9484398664383 430.1945952761557 917.6463108167388 430.1945952761557L917.6463108167388 430.1945952761557Q913.996429118764 430.1945952761557 910.5239722255519 432.93200654963675L910.5239722255519 432.93200654963675L910.5239722255519 461.39601451370356Q910.5239722255519 474.90564607634616 919.8261012752514 474.90564607634616ZM926.9484398664383 382.18851238751586Q926.9484398664383 377.27131065552214 924.8446886099667 373.6974681595886Q922.7409373534952 370.14897206433534 918.8375916487166 370.14897206433534Q914.9088995432578 370.14897206433534 910.5239722255519 375.62379461129746L910.5239722255519 375.62379461129746L910.5239722255519 413.38993162506375Q926.9484398664383 408.8275795025953 926.9484398664383 393.69577829640843L926.9484398664383 393.69577829640843L926.9484398664383 382.18851238751586ZM987.3489126877839 400.08307126786417L987.3489126877839 400.08307126786417L987.3489126877839 464.66570020147265Q987.3489126877839 475.81811650083984 994.8261008884961 477.2628613396215L994.8261008884961 477.2628613396215L994.8261008884961 481.29293904780195L976.3992675938598 491.6849633267577Q972.3945362863598 490.0374472825331 968.9220793931477 486.3115263825172Q965.4496224999356 482.56025908182096 965.4496224999356 479.2652269933715L965.4496224999356 479.2652269933715L965.4496224999356 414.6825980597631Q965.4496224999356 403.53018176039586 957.9724342992236 402.08543692161425L957.9724342992236 402.08543692161425L957.9724342992236 398.0553592134338L976.3992675938598 387.663334934478Q980.4293453020402 389.31085097870266 983.8764557945718 393.0367718787185Q987.3489126877839 396.7880391794148 987.3489126877839 400.08307126786417ZM962.7122112264544 364.85157432213595L962.7122112264544 364.85157432213595L962.7122112264544 353.72450442344905Q962.7122112264544 353.1668836084807 970.2907850298882 350.3534331329585Q977.8693588333217 347.5146362567559 979.0606396652997 347.5146362567559Q980.2265740965971 347.5146362567559 982.5077501578314 350.60689713976234Q984.7889262190656 353.72450442344905 984.7889262190656 356.9941901112181L984.7889262190656 356.9941901112181L984.7889262190656 370.326396869098Q984.7889262190656 370.88401768406635 977.4891628231162 373.6974681595886Q970.1893994271667 376.53626503579113 968.5672297836223 376.53626503579113Q966.9197137393976 376.53626503579113 964.8159624829261 373.34261855006326Q962.7122112264544 370.14897206433534 962.7122112264544 364.85157432213595ZM1050.309371977848 387.663334934478L1050.309371977848 387.663334934478Q1051.2218424023417 387.663334934478 1054.8717241003164 390.5021318106805Q1058.5216057982911 393.3155822862027 1062.1714874962659 398.334169620918Q1065.8213691942406 403.35275695563325 1065.8213691942406 408.0925338828643L1065.8213691942406 408.0925338828643L1065.8213691942406 438.7616787061242Q1065.8213691942406 442.0567107945736 1056.164390535016 446.7964877218047Q1046.4820654751106 451.53626464903573 1037.4587468328955 454.552486330001Q1028.4100817899998 457.5687080109662 1027.6750361702689 457.5687080109662L1027.6750361702689 457.5687080109662Q1027.6750361702689 471.6106139878967 1039.9173476988922 474.90564607634616L1039.9173476988922 474.90564607634616Q1045.9244446601424 476.35039091512783 1054.3394496860287 476.35039091512783L1054.3394496860287 476.35039091512783L1054.3394496860287 481.6477886573273Q1024.4053504824997 491.6849633267577 1022.4029848287496 491.6849633267577L1022.4029848287496 491.6849633267577Q1016.9281622817875 491.6849633267577 1011.2505685293825 483.9289647185615Q1005.5983211776577 476.17296611036517 1005.5983211776577 465.78094183140934L1005.5983211776577 465.78094183140934L1005.5983211776577 404.44265218488954Q1005.5983211776577 403.17533215087053 1026.4077161362497 395.4193335426743Q1047.2171110948416 387.663334934478 1050.309371977848 387.663334934478ZM1043.9220790063923 416.6849637135131Q1043.9220790063923 411.56499077607634 1041.5648637431168 408.01649468082314Q1039.1823020791612 404.44265218488954 1035.5324203811865 404.44265218488954Q1031.8825386832118 404.44265218488954 1027.4976113655061 407.1800634583706L1027.4976113655061 407.1800634583706L1027.4976113655061 449.35647419052304Q1043.9220790063923 444.79412206805466 1043.9220790063923 429.6369744611874L1043.9220790063923 429.6369744611874L1043.9220790063923 416.6849637135131ZM1074.2110278194464 402.6177113359022L1074.2110278194464 398.61298002840215L1094.2853771583077 387.663334934478Q1095.578043593007 388.0181845440033 1097.3015988392726 388.67719096169316Q1099.0505004862189 389.31085097870266 1102.0413757665037 392.22568705694636Q1105.057597447469 395.14052313519005 1105.057597447469 398.7904048331648L1105.057597447469 398.7904048331648Q1105.9700678719628 398.4355552236395 1113.7260664801593 393.0367718787185Q1121.4820650883553 387.663334934478 1123.6872019475486 387.663334934478L1123.6872019475486 387.663334934478Q1129.5168741040357 387.663334934478 1134.6368470414727 395.3179479399527Q1139.7314735782288 402.9979073461079 1139.7314735782288 409.38520031756366L1139.7314735782288 409.38520031756366L1139.7314735782288 418.3324797577378L1120.9497906740676 428.90192884145637L1117.8321833903806 426.34194237273795Q1117.8321833903806 411.0327163617884 1114.9173473121368 408.8275795025953L1114.9173473121368 408.8275795025953Q1111.6223152236876 406.47036423931996 1105.057597447469 406.47036423931996L1105.057597447469 406.47036423931996L1105.057597447469 464.66570020147265Q1105.057597447469 475.81811650083984 1112.5347856481812 477.2628613396215L1112.5347856481812 477.2628613396215L1112.5347856481812 481.29293904780195L1094.107952353545 491.6849633267577Q1090.1032210460448 490.0374472825331 1086.6307641528329 486.3115263825172Q1083.1583072596209 482.56025908182096 1083.1583072596209 479.2652269933715L1083.1583072596209 479.2652269933715L1083.1583072596209 418.68732936726315Q1083.1583072596209 410.65252035158267 1080.3448567840983 406.64778904408263Q1077.506059907896 402.6177113359022 1074.2110278194464 402.6177113359022L1074.2110278194464 402.6177113359022ZM1187.1799356519005 473.08070522735875L1187.1799356519005 473.08070522735875L1187.1799356519005 380.92119235349685Q1187.1799356519005 374.8887489915664 1184.6199491831821 370.50382167386067Q1182.085309115144 366.1188943561549 1178.2326562117264 366.1188943561549L1178.2326562117264 366.1188943561549L1178.2326562117264 362.11416304865486Q1179.5253226464256 361.9367382438922 1198.1295807458246 350.987093149968L1198.1295807458246 350.987093149968Q1199.4222471805242 351.34194275949335 1201.2471880295116 351.97560277650285Q1203.072128878499 352.6346091941927 1206.0630041587838 355.54944527243646Q1209.0792258397487 358.4642813506801 1209.0792258397487 362.2915878534175L1209.0792258397487 362.2915878534175Q1210.169121069005 361.7593134391295 1215.2890940064422 358.8191309602054L1215.2890940064422 358.8191309602054Q1228.7987255690846 351.1645179547307 1231.9923720548127 351.1645179547307Q1235.1860185405403 351.1645179547307 1239.1147106459994 354.45955004318006Q1243.018056350778 357.72923573094914 1245.045768405208 362.2915878534175L1245.045768405208 362.2915878534175Q1245.4006180147335 362.11416304865486 1252.5229566059202 358.4642813506801L1252.5229566059202 358.4642813506801Q1266.7422873876135 351.1645179547307 1269.6824698665373 351.1645179547307L1269.6824698665373 351.1645179547307Q1275.5121420230248 351.1645179547307 1280.6321149604614 358.8191309602054Q1285.726741497218 366.4990903663606 1285.726741497218 372.8863833378164L1285.726741497218 372.8863833378164L1285.726741497218 464.66570020147265Q1285.726741497218 474.7028748709031 1294.674020937392 476.52781571989044L1294.674020937392 476.52781571989044L1294.674020937392 480.5578934280709L1274.7770964032939 491.6849633267577Q1270.7723650957937 490.0374472825331 1267.2999082025817 486.3115263825172Q1263.8274513093697 482.56025908182096 1263.8274513093697 479.2652269933715L1263.8274513093697 479.2652269933715L1263.8274513093697 389.84312539299066Q1263.8274513093697 378.8934802990665 1260.2789552141162 374.6099385840823Q1256.705112718183 370.326396869098 1247.4029836684836 369.9715472595727L1247.4029836684836 369.9715472595727L1247.4029836684836 464.66570020147265Q1247.4029836684836 474.7028748709031 1256.3502631086576 476.52781571989044L1256.3502631086576 476.52781571989044L1256.3502631086576 480.5578934280709L1236.4533385745594 491.6849633267577Q1232.4486072670593 490.0374472825331 1228.9761503738473 486.3115263825172Q1225.5036934806353 482.56025908182096 1225.5036934806353 479.2652269933715L1225.5036934806353 479.2652269933715L1225.5036934806353 389.84312539299066Q1225.5036934806353 378.3612058847785 1222.1326221901445 374.15370337183543Q1218.7615508996541 369.9715472595727 1209.0792258397487 369.9715472595727L1209.0792258397487 369.9715472595727L1209.0792258397487 463.57580497221625Q1209.0792258397487 470.3432939538777 1210.549317079211 473.25813003212147Q1211.9940619179924 476.17296611036517 1216.5564140404608 476.17296611036517L1216.5564140404608 476.17296611036517L1216.5564140404608 481.8252134620899L1179.14512663622 497.5146354832452L1176.2302905579763 491.6849633267577Q1180.2603682661565 491.6849633267577 1183.9102499641313 486.94518639952673L1183.9102499641313 486.94518639952673Q1187.1799356519005 482.38283427705824 1187.1799356519005 473.08070522735875ZM1360.5493163057 411.74241558083907L1360.5493163057 411.74241558083907L1360.5493163057 463.39838016745364Q1360.5493163057 470.1405227484347 1362.7544531648932 472.80189481987463Q1364.9342436234056 475.43792049063416 1369.496595745874 476.52781571989044L1369.496595745874 476.52781571989044L1369.496595745874 480.5578934280709L1349.5996712117758 491.6849633267577Q1345.5949399042756 490.0374472825331 1342.1224830110637 486.3115263825172Q1338.6500261178517 482.56025908182096 1338.6500261178517 479.4679981988146L1338.6500261178517 479.4679981988146L1315.8382655055093 491.6849633267577Q1315.3059910912216 491.33011371723245 1314.1907494612847 490.67110729954254Q1313.1008542320283 490.0374472825331 1310.4648285612689 487.9336960260615Q1307.803456489829 485.85529117027033 1305.8010908360789 483.47272950631464L1305.8010908360789 483.47272950631464Q1300.3262682891168 477.4402861443842 1300.3262682891168 469.7856731389094L1300.3262682891168 469.7856731389094L1300.3262682891168 439.85157393538054Q1300.3262682891168 436.9367378571368 1309.8311685442595 432.3743857346684Q1319.3107223987217 427.8120336122 1328.7902762531835 424.8971975339563L1328.7902762531835 424.8971975339563L1338.472601313089 421.7795902502695Q1338.472601313089 411.38756597131373 1332.9977787661269 407.28144906109213Q1327.5229562191648 403.17533215087053 1311.8335341980091 403.17533215087053L1311.8335341980091 403.17533215087053L1311.8335341980091 397.7005096039085Q1340.1201173573136 387.663334934478 1343.5925742505256 387.663334934478L1343.5925742505256 387.663334934478Q1349.5996712117758 387.663334934478 1355.0744937587378 395.5207191453958Q1360.5493163057 403.35275695563325 1360.5493163057 411.74241558083907ZM1322.225558476965 463.2209553626909Q1322.225558476965 467.960732289922 1325.0643553531677 470.9769539708873Q1327.8778058286898 473.9931756518525 1331.3502627219023 473.9931756518525Q1334.8227196151142 473.9931756518525 1338.6500261178517 471.2557643783714L1338.6500261178517 471.2557643783714L1338.6500261178517 429.99182407071265Q1334.0876739953833 431.6393401149374 1331.8064979341489 432.72923534419374Q1329.525321872915 433.84447697413043 1326.9653354041966 436.2016922374058L1326.9653354041966 436.2016922374058Q1322.225558476965 440.58661955511155 1322.225558476965 451.3588398442731L1322.225558476965 451.3588398442731L1322.225558476965 463.2209553626909ZM1369.8514453553994 402.6177113359022L1369.8514453553994 398.61298002840215L1389.9257946942603 387.663334934478Q1391.21846112896 388.0181845440033 1392.9420163752256 388.67719096169316Q1394.690918022172 389.31085097870266 1397.6817933024568 392.22568705694636Q1400.6980149834217 395.14052313519005 1400.6980149834217 398.7904048331648L1400.6980149834217 398.7904048331648Q1401.6104854079158 398.4355552236395 1409.3664840161118 393.0367718787185Q1417.1224826243083 387.663334934478 1419.3276194835012 387.663334934478L1419.3276194835012 387.663334934478Q1425.1572916399887 387.663334934478 1430.2772645774253 395.3179479399527Q1435.3718911141818 402.9979073461079 1435.3718911141818 409.38520031756366L1435.3718911141818 409.38520031756366L1435.3718911141818 418.3324797577378L1416.5902082100201 428.90192884145637L1413.4726009263336 426.34194237273795Q1413.4726009263336 411.0327163617884 1410.5577648480898 408.8275795025953L1410.5577648480898 408.8275795025953Q1407.2627327596406 406.47036423931996 1400.6980149834217 406.47036423931996L1400.6980149834217 406.47036423931996L1400.6980149834217 464.66570020147265Q1400.6980149834217 475.81811650083984 1408.1752031841343 477.2628613396215L1408.1752031841343 477.2628613396215L1408.1752031841343 481.29293904780195L1389.7483698894976 491.6849633267577Q1385.7436385819979 490.0374472825331 1382.2711816887859 486.3115263825172Q1378.7987247955734 482.56025908182096 1378.7987247955734 479.2652269933715L1378.7987247955734 479.2652269933715L1378.7987247955734 418.68732936726315Q1378.7987247955734 410.65252035158267 1375.9852743200513 406.64778904408263Q1373.1464774438487 402.6177113359022 1369.8514453553994 402.6177113359022L1369.8514453553994 402.6177113359022ZM1470.045767244942 444.23650125308626L1470.045767244942 464.66570020147265Q1470.045767244942 475.81811650083984 1477.5229554456541 477.2628613396215L1477.5229554456541 477.2628613396215L1477.5229554456541 481.29293904780195L1459.0961221510174 491.6849633267577Q1455.0913908435177 490.0374472825331 1451.6189339503057 486.3115263825172Q1448.1464770570933 482.56025908182096 1448.1464770570933 479.2652269933715L1448.1464770570933 479.2652269933715L1448.1464770570933 388.930654968497Q1448.1464770570933 384.01345323650327 1446.4989610128687 381.9097019800317Q1444.8767913693246 379.80595072356016 1440.846713661144 379.80595072356016L1440.846713661144 379.80595072356016L1440.846713661144 374.7113241868038Q1464.57094469798 362.2915878534175 1483.200549198059 351.34194275949335L1483.200549198059 351.34194275949335L1486.1153852763027 357.1969613166611Q1484.2904444273154 358.10943174115476 1480.9954123388661 360.74545741191434Q1477.725726651097 363.38148308267387 1475.520589791904 366.1188943561549L1475.520589791904 366.1188943561549Q1470.045767244942 373.06380814257903 1470.045767244942 381.8336627779905L1470.045767244942 381.8336627779905L1470.045767244942 398.61298002840215Q1487.0278557007964 387.663334934478 1490.1201165838029 387.663334934478L1490.1201165838029 387.663334934478Q1495.2400895212395 387.663334934478 1501.4499576879325 394.32943831341794Q1507.6344794539455 400.9955416923579 1507.6344794539455 409.20777551280105L1507.6344794539455 409.20777551280105L1507.6344794539455 429.07935364621903Q1507.6344794539455 431.1070657006494 1488.675371745021 438.40682909659887L1488.675371745021 438.40682909659887Q1500.1572912532333 468.8732027144157 1511.1069363471574 473.4355548368841L1511.1069363471574 473.4355548368841Q1514.5793932403694 475.0830708811088 1518.7868957533128 475.43792049063416L1518.7868957533128 475.43792049063416L1518.7868957533128 480.7353182328336Q1501.804807297458 491.6849633267577 1497.4198799797523 491.6849633267577L1497.4198799797523 491.6849633267577Q1491.5902078232648 491.6849633267577 1482.5415427803691 473.891790049131Q1473.518224138154 456.09861677150417 1470.045767244942 444.23650125308626L1470.045767244942 444.23650125308626ZM1470.045767244942 406.26759303387695L1470.045767244942 435.2892218129121Q1473.6956489429163 435.2892218129121 1483.200549198059 430.7268696904437L1483.200549198059 430.7268696904437L1486.4702348858282 429.07935364621903L1486.4702348858282 420.86711982577583Q1486.4702348858282 405.3551226093832 1475.9007858021096 405.3551226093832L1475.9007858021096 405.3551226093832L1470.045767244942 406.26759303387695ZM1571.3299843637406 387.663334934478L1571.3299843637406 387.663334934478Q1572.2424547882342 387.663334934478 1575.892336486209 390.5021318106805Q1579.5422181841836 393.3155822862027 1583.1920998821583 398.334169620918Q1586.841981580133 403.35275695563325 1586.841981580133 408.0925338828643L1586.841981580133 408.0925338828643L1586.841981580133 438.7616787061242Q1586.841981580133 442.0567107945736 1577.1850029209081 446.7964877218047Q1567.5026778610031 451.53626464903573 1558.4793592187875 454.552486330001Q1549.4306941758923 457.5687080109662 1548.6956485561614 457.5687080109662L1548.6956485561614 457.5687080109662Q1548.6956485561614 471.6106139878967 1560.9379600847847 474.90564607634616L1560.9379600847847 474.90564607634616Q1566.945057046035 476.35039091512783 1575.3600620719208 476.35039091512783L1575.3600620719208 476.35039091512783L1575.3600620719208 481.6477886573273Q1545.4259628683922 491.6849633267577 1543.423597214642 491.6849633267577L1543.423597214642 491.6849633267577Q1537.94877466768 491.6849633267577 1532.2711809152747 483.9289647185615Q1526.61893356355 476.17296611036517 1526.61893356355 465.78094183140934L1526.61893356355 465.78094183140934L1526.61893356355 404.44265218488954Q1526.61893356355 403.17533215087053 1547.4283285221422 395.4193335426743Q1568.237723480734 387.663334934478 1571.3299843637406 387.663334934478ZM1564.9426913922848 416.6849637135131Q1564.9426913922848 411.56499077607634 1562.5854761290093 408.01649468082314Q1560.2029144650537 404.44265218488954 1556.553032767079 404.44265218488954Q1552.9031510691043 404.44265218488954 1548.5182237513986 407.1800634583706L1548.5182237513986 407.1800634583706L1548.5182237513986 449.35647419052304Q1564.9426913922848 444.79412206805466 1564.9426913922848 429.6369744611874L1564.9426913922848 429.6369744611874L1564.9426913922848 416.6849637135131ZM1620.983583296605 368.67888082487326L1626.0782098333616 368.67888082487326L1626.0782098333616 390.400746207959L1635.380338883061 390.400746207959L1633.5553980340737 399.34802564813316L1626.0782098333616 399.34802564813316L1626.0782098333616 464.66570020147265Q1626.0782098333616 475.81811650083984 1633.5553980340737 477.2628613396215L1633.5553980340737 477.2628613396215L1633.5553980340737 481.29293904780195L1615.1285647394375 491.6849633267577Q1611.1238334319373 490.0374472825331 1607.6513765387253 486.3115263825172Q1604.1789196455134 482.56025908182096 1604.1789196455134 479.2652269933715L1604.1789196455134 479.2652269933715L1604.1789196455134 399.5254504528958L1596.7017314448012 399.5254504528958L1598.5266722937881 391.8708374474211Q1604.0014948407506 391.8708374474211 1611.7574934489467 384.4696884487501Q1619.5134920571431 377.0685394500791 1620.983583296605 368.67888082487326L1620.983583296605 368.67888082487326Z " fill="#f4a896" transform="matrix(0.5350437548924848,0,0,0.5350437548924848,0,73.9361802510081)"/></g></svg>